<?xml version="1.0" encoding="UTF-8" standalone="no"?>
<!-- Created with Inkscape (http://www.inkscape.org/) -->

<svg
   xmlns:dc="http://purl.org/dc/elements/1.1/"
   xmlns:cc="http://creativecommons.org/ns#"
   xmlns:rdf="http://www.w3.org/1999/02/22-rdf-syntax-ns#"
   xmlns:svg="http://www.w3.org/2000/svg"
   xmlns="http://www.w3.org/2000/svg"
   xmlns:sodipodi="http://sodipodi.sourceforge.net/DTD/sodipodi-0.dtd"
   xmlns:inkscape="http://www.inkscape.org/namespaces/inkscape"
   width="48"
   height="48"
   id="svg2"
   version="1.1"
   inkscape:version="0.47 r22583"
   sodipodi:docname="ROP_partio.svg">
  <defs
     id="defs4">
    <inkscape:perspective
       sodipodi:type="inkscape:persp3d"
       inkscape:vp_x="0 : 526.18109 : 1"
       inkscape:vp_y="0 : 1000 : 0"
       inkscape:vp_z="744.09448 : 526.18109 : 1"
       inkscape:persp3d-origin="372.04724 : 350.78739 : 1"
       id="perspective10" />
    <inkscape:perspective
       id="perspective2896"
       inkscape:persp3d-origin="0.5 : 0.33333333 : 1"
       inkscape:vp_z="1 : 0.5 : 1"
       inkscape:vp_y="0 : 1000 : 0"
       inkscape:vp_x="0 : 0.5 : 1"
       sodipodi:type="inkscape:persp3d" />
  </defs>
  <sodipodi:namedview
     id="base"
     pagecolor="#ffffff"
     bordercolor="#666666"
     borderopacity="1.0"
     inkscape:pageopacity="0.0"
     inkscape:pageshadow="2"
     inkscape:zoom="8"
     inkscape:cx="18.368722"
     inkscape:cy="33.996503"
     inkscape:document-units="px"
     inkscape:current-layer="layer1"
     showgrid="false"
     inkscape:window-width="1069"
     inkscape:window-height="1018"
     inkscape:window-x="683"
     inkscape:window-y="43"
     inkscape:window-maximized="0" />
  <metadata
     id="metadata7">
    <rdf:RDF>
      <cc:Work
         rdf:about="">
        <dc:format>image/svg+xml</dc:format>
        <dc:type
           rdf:resource="http://purl.org/dc/dcmitype/StillImage" />
        <dc:title></dc:title>
      </cc:Work>
    </rdf:RDF>
  </metadata>
  <g
     inkscape:groupmode="layer"
     id="layer2"
     inkscape:label="Layer"
     transform="translate(0,-1004.3622)"
     style="display:none" />
  <g
     inkscape:label="Layer 1"
     inkscape:groupmode="layer"
     id="layer1"
     style="display:inline"
     transform="translate(0,-1004.3622)">
    <path
       style="fill:#766d57;fill-opacity:1"
       d="m -0.234848,1042.8745 0,-9.4548 1.224185,0.1282 c 1.565188,0.1638 1.927509,-0.3246 2.053638,-2.7685 l 0.09968,-1.9313 2.600846,-0.1862 c 3.814581,-0.273 4.958321,-1.3337 4.958321,-4.5981 0,-1.014 -0.238697,-1.6771 -0.893111,-2.4811 -0.8145,-1.0006 -1.14718,-1.1284 -3.779584,-1.4518 -1.58756,-0.195 -3.64641,-0.2714 -4.575222,-0.1697 l -1.68875,0.1849 0,-7.9193 0,-7.9192 12.112354,0 c 11.713877,0 12.094841,0.021 11.58,0.6457 -0.699269,0.8482 -0.672846,1.577 0.08445,2.3293 0.767508,0.7625 1.906191,0.6079 2.473845,-0.3357 0.360895,-0.6 0.356951,-0.8702 -0.02448,-1.6772 l -0.454688,-0.9621 11.239256,0 11.239259,0 -0.0013,11.3875 c -0.0013,11.2325 -0.0093,11.3731 -0.597277,10.3282 -1.168554,-2.0767 -1.839756,-2.461 -4.500551,-2.577 -2.031177,-0.088 -2.642929,0.019 -3.508492,0.6137 -2.261976,1.5555 -2.948004,4.5425 -1.633127,7.1106 0.897987,1.7539 2.486496,2.6214 4.776917,2.6088 2.317251,-0.013 3.715617,-0.6823 4.680333,-2.2408 l 0.783484,-1.2655 0,11.0281 0,11.0281 -11.243373,0 -11.243372,0 0.543625,-1.0398 c 0.520322,-0.9952 0.514772,-1.0822 -0.129467,-2.0303 -0.827605,-1.218 -1.523275,-1.3976 -2.550729,-0.6586 -0.930321,0.6692 -1.05071,2.119 -0.255996,3.0829 0.514828,0.6245 0.138897,0.6458 -11.419167,0.6458 l -11.951521,0 0,-9.4548 z m 32.464987,7.8182 c 0.366674,-0.5117 0.66668,-1.234 0.66668,-1.605 0,-0.8999 -1.410204,-2.408 -2.251667,-2.408 -0.369917,0 -1.027871,0.39 -1.462121,0.8667 -0.43425,0.4766 -0.789546,1.1989 -0.789546,1.605 0,1.0099 1.404261,2.4717 2.374532,2.4717 0.476202,0 1.063005,-0.3734 1.462122,-0.9304 z m -12.06316,-0.1 c 0.758906,-0.9205 0.527205,-2.1892 -0.516928,-2.8304 -0.787536,-0.4837 -0.920498,-0.4723 -1.527917,0.1312 -0.817852,0.8124 -0.87557,2.5005 -0.102399,2.9949 0.853856,0.5459 1.530174,0.4528 2.147244,-0.2957 z m -4.585072,-2.379 c 1.05244,-1.0455 0.539573,-2.5935 -0.859255,-2.5935 -0.862214,0 -1.4475,0.6424 -1.4475,1.5889 0,1.5032 1.254787,2.0496 2.306755,1.0046 z m 23.185328,-1.2213 c 0.86391,-1.1422 0.729714,-2.9425 -0.28463,-3.8183 -0.466149,-0.4025 -1.170377,-0.7318 -1.564953,-0.7318 -2.250139,0 -3.308023,3.4126 -1.532993,4.9453 1.055923,0.9118 2.523749,0.7403 3.382576,-0.3952 z m -26.330664,-1.9308 c 0.341523,-0.9769 0.213251,-1.5246 -0.448086,-1.9131 -1.298591,-0.7629 -2.569259,0.9225 -1.544,2.0479 0.551478,0.6054 1.761974,0.5235 1.992086,-0.1348 z m -2.538919,-3.8504 c 0,-1.2519 -1.004525,-1.6772 -1.655025,-0.7006 -0.572854,0.86 0.01556,2.0113 0.953039,1.8648 0.542515,-0.085 0.701986,-0.3492 0.701986,-1.1642 z m 33.78962,-1.0481 c 0.785381,-0.8621 1.046044,-2.579 0.589734,-3.8843 -0.242524,-0.6938 -1.7699,-1.6048 -2.69053,-1.6048 -0.987838,0 -2.13686,0.9496 -2.584485,2.1359 -1.130787,2.9967 2.58647,5.6572 4.685281,3.3532 z M 8.289319,1038.205 c 0,-0.6307 -0.194904,-0.9132 -0.682809,-0.9896 -0.745217,-0.1168 -1.183486,0.654 -0.874488,1.538 0.320235,0.916 1.557297,0.4805 1.557297,-0.5484 z m -0.867576,-2.958 c -0.06194,-0.4765 -0.330153,-0.7495 -0.736352,-0.7495 -0.735996,0 -1.081729,1.1854 -0.467309,1.6022 0.643732,0.4368 1.309917,-0.035 1.203661,-0.8527 z m 8.122736,-1.8156 c 0.941022,-0.3645 1.490356,-0.4211 1.713109,-0.1766 0.180343,0.198 0.899458,0.3599 1.598032,0.3599 l 1.270134,0 -0.18065,-4.0264 c -0.09936,-2.2146 -0.334937,-4.343 -0.523511,-4.7297 -0.188573,-0.3868 -0.801767,-0.8789 -1.362651,-1.0935 -1.484855,-0.5682 -4.653218,-0.4825 -5.778583,0.1563 -0.958203,0.5439 -1.74819,2.0443 -1.401024,2.661 0.31585,0.561 1.740407,0.3521 2.992075,-0.4386 0.845839,-0.5344 1.465521,-0.6906 2.074144,-0.5229 1.052907,0.29 1.144871,1.2076 0.144181,1.4385 -0.398062,0.092 -1.516383,0.3392 -2.485156,0.5497 -0.968774,0.2105 -2.090587,0.7223 -2.492917,1.1372 -0.994986,1.026 -0.998888,3.0659 -0.0078,4.0557 1.29302,1.2914 2.345941,1.4406 4.440577,0.6294 z m -1.883327,-2.0059 c -0.90962,-0.9985 -0.222155,-1.7847 1.952005,-2.2325 1.134565,-0.2336 1.200328,-0.1971 1.200328,0.6658 0,1.4121 -2.266865,2.5387 -3.152333,1.5667 z m -6.732689,1.7479 c 0.205932,-0.6481 -0.09254,-1.3242 -0.584575,-1.3242 -0.565109,0 -0.89058,0.6118 -0.666502,1.2528 0.219654,0.6283 1.058874,0.6762 1.251077,0.071 z m 16.649748,-2.8611 c 0.178819,-3.2773 0.582241,-4.1127 1.986119,-4.1127 0.32242,0 0.870141,-0.1946 1.217158,-0.4325 0.989227,-0.6782 1.268031,-0.021 1.497716,3.5312 0.253895,3.9264 0.583704,4.4105 2.894789,4.249 1.338399,-0.093 1.576696,-0.2228 1.664713,-0.903 0.07538,-0.5826 -0.117247,-0.8857 -0.72375,-1.1389 -0.784252,-0.3273 -0.826471,-0.4777 -0.826471,-2.9452 0,-2.431 0.05236,-2.6265 0.804167,-3.0025 1.023386,-0.5119 1.03125,-1.3782 0.01711,-1.8855 -0.546474,-0.2733 -0.816866,-0.7297 -0.884582,-1.4931 -0.08977,-1.012 -0.201479,-1.1078 -1.404085,-1.2048 -1.270163,-0.1024 -1.315072,-0.068 -1.612273,1.2359 -0.291745,1.2799 -0.360259,1.3365 -1.499206,1.2388 -0.656419,-0.056 -1.617148,0.1382 -2.134954,0.4321 -0.82869,0.4704 -0.98859,0.4721 -1.334874,0.014 -0.413887,-0.5475 -1.205045,-0.6651 -2.057498,-0.306 -0.428479,0.1804 -0.508808,0.9516 -0.508808,4.8845 0,2.5686 0.103389,4.7837 0.229754,4.9224 0.126364,0.1388 0.741551,0.205 1.367083,0.1472 l 1.13733,-0.1051 0.170559,-3.1259 z m 12.785547,-1.72 0.08944,-4.8459 -0.789974,-0.2177 c -0.434485,-0.1197 -1.08992,-0.1131 -1.456523,0.015 -0.630158,0.2195 -0.666548,0.4879 -0.666548,4.9164 0,2.5763 0.10339,4.7977 0.229754,4.9364 0.126363,0.1388 0.741551,0.205 1.367083,0.1472 l 1.13733,-0.1051 0.08944,-4.8459 z m 0.01136,-7.4244 c -0.0953,-1.0849 -0.170959,-1.1475 -1.387464,-1.1475 -1.216505,0 -1.292164,0.063 -1.387464,1.1475 -0.100595,1.1453 -0.09783,1.1476 1.387464,1.1476 1.485296,0 1.488059,0 1.387464,-1.1476 z m 7.483112,0.1155 c 0.566831,-0.6222 0.940257,-1.4043 0.940257,-1.9692 0,-1.0264 -1.557465,-3.0014 -2.366817,-3.0014 -1.748136,0 -3.305787,1.985 -2.91136,3.7101 0.257443,1.126 1.586686,2.2926 2.612133,2.2926 0.439329,0 1.199923,-0.4549 1.725787,-1.0321 z m -35.408076,-3.5373 c 0,-0.377 -0.157363,-0.7922 -0.349694,-0.9226 -0.491857,-0.3337 -1.061095,0.3904 -0.828946,1.0545 0.275731,0.7888 1.17864,0.6877 1.17864,-0.1319 z m 1.182801,-1.9986 c 0.225197,-0.6442 -0.428489,-1.2248 -1.073214,-0.9532 -0.23719,0.1 -0.431254,0.4825 -0.431254,0.8501 0,0.8343 1.219655,0.9179 1.504468,0.1031 z m 29.951332,-0.3671 c 1.104719,-0.3249 1.821888,-2.0654 1.357803,-3.2952 -0.36118,-0.9572 -1.488143,-1.7751 -2.44586,-1.7751 -0.774464,0 -2.061076,1.6532 -2.061076,2.6483 0,0.9575 1.279091,2.6517 1.995797,2.6434 0.229187,0 0.748187,-0.1023 1.153336,-0.2214 z m -28.448048,-1.3525 c 0.09987,-0.2857 -0.05007,-0.7737 -0.333205,-1.0845 -0.45665,-0.5013 -0.569051,-0.5056 -0.995318,-0.038 -0.264294,0.2901 -0.392908,0.7781 -0.28581,1.0845 0.245574,0.7025 1.372725,0.7287 1.614333,0.038 z m 1.30844,-1.4604 c 0.666875,-0.2809 0.65639,-1.7666 -0.01446,-2.0492 -1.032988,-0.4351 -1.81276,0.9704 -1.02073,1.8398 0.451085,0.4952 0.38737,0.4823 1.035192,0.2094 z m 2.998456,-2.8646 c 0.122627,-0.4038 -0.758937,-1.5114 -1.202981,-1.5114 -0.357337,0 -1.286667,1.0202 -1.286667,1.4124 0,0.1665 0.233949,0.5595 0.519887,0.8734 0.449498,0.4934 0.610429,0.5047 1.188621,0.083 0.367803,-0.268 0.719317,-0.654 0.78114,-0.8576 z m 19.898449,1.0432 c 0.86492,-0.634 1.12638,-1.8138 0.633715,-2.8596 -0.974093,-2.0678 -3.483839,-1.5842 -3.658427,0.705 -0.06298,0.8258 0.08735,1.4805 0.42506,1.8512 0.53938,0.5921 1.976863,0.7599 2.599652,0.3034 z m -17.254255,-2.008 c 0.854494,-1.1302 -0.40055,-2.8664 -1.515092,-2.0959 -0.714656,0.494 -0.889321,1.4345 -0.389258,2.0959 0.496849,0.6572 1.407501,0.6572 1.90435,0 z m 12.785925,-1.1394 c 0.433034,-0.7255 0.44505,-0.9814 0.08112,-1.7279 -1.07357,-2.202 -3.955235,-1.0176 -3.402794,1.3986 0.392306,1.7158 2.376657,1.9125 3.321677,0.3293 z m -9.2991,0.1691 c 0.2123,-0.2331 0.386,-0.7697 0.386,-1.1926 0,-1.8069 -2.168375,-2.1095 -2.720374,-0.3797 -0.266565,0.8354 -0.216465,1.0891 0.296257,1.5007 0.756474,0.6072 1.525577,0.6342 2.038117,0.072 z m 19.364333,23.0221 c -1.004462,-1.1026 -0.89192,-3.6182 0.204214,-4.5646 1.40806,-1.2159 2.846055,-0.8943 3.487301,0.7798 0.490136,1.2796 0.135939,3.3857 -0.679479,4.0402 -0.833754,0.6692 -2.281566,0.5465 -3.012036,-0.2554 z m -37.956666,-6.3558 0,-1.7655 1.865666,0 c 2.005255,0 2.637667,0.3919 2.637667,1.6344 0,1.3215 -0.836103,1.8966 -2.757143,1.8966 l -1.74619,0 0,-1.7655 z"
       id="path3010" />
    <path
       style="fill:#000000"
       d=""
       id="path3002" />
    <path
       style="fill:#000000"
       d=""
       id="path3000" />
  </g>
</svg>
