/* XPM */
static char * out_partioEmitter_xpm[] = {
"20 20 8 1",
" 	c None",
".	c #FEFEFE",
"+	c #FFFFFF",
"@	c #FDFDFD",
"#	c #F8F8F8",
"$	c #F9F9F9",
"%	c #FCFCFC",
"&	c #FBFBFB",
"        . + .       ",
"      . +   . @.    ",
"     @        @@    ",
"    @           ##  ",
"   @             $  ",
"  .#######   #    $ ",
" + #$#  #$#  #    $#",
"   #$    ##         ",
"   ##    #$  ## +++$",
"   ######$#  #$ +  +",
"   $######   #$ +  +",
"   ##        #$ +#$#",
"   ##        #$     ",
"  .##        ##  $$#",
"                 #$$",
"   @                ",
"    @          $.   ",
"     .         %@   ",
"       @. % &.      ",
"        + .  &      "};
